<mxfile host="app.diagrams.net" modified="2023-08-29T06:01:52.781Z" agent="Mozilla/5.0 (Windows NT 10.0; Win64; x64) AppleWebKit/537.36 (KHTML, like Gecko) Chrome/116.0.0.0 Safari/537.36" etag="X-pL4wFweBcj4ZR50QZG" version="21.6.9" type="github">
  <diagram name="Page-1" id="c37626ed-c26b-45fb-9056-f9ebc6bb27b6">
    <mxGraphModel dx="2743" dy="1668" grid="1" gridSize="10" guides="1" tooltips="1" connect="1" arrows="1" fold="1" page="1" pageScale="1" pageWidth="1169" pageHeight="827" background="none" math="0" shadow="0">
      <root>
        <mxCell id="0" />
        <mxCell id="1" parent="0" />
        <mxCell id="C9soJnvK-WdOjWq8ESSx-2" value="" style="rounded=0;whiteSpace=wrap;html=1;fillColor=#d5e8d4;strokeColor=#000000;" parent="1" vertex="1">
          <mxGeometry x="60" y="71" width="500" height="729" as="geometry" />
        </mxCell>
        <mxCell id="C9soJnvK-WdOjWq8ESSx-4" value="" style="rounded=0;whiteSpace=wrap;html=1;fillColor=#f8cecc;strokeColor=#000000;" parent="1" vertex="1">
          <mxGeometry x="610.38" y="71" width="489.62" height="729" as="geometry" />
        </mxCell>
        <mxCell id="C9soJnvK-WdOjWq8ESSx-3" value="" style="rounded=0;whiteSpace=wrap;html=1;fillColor=#e1d5e7;strokeColor=#000000;" parent="1" vertex="1">
          <mxGeometry x="590" y="-440" width="308.25" height="160" as="geometry" />
        </mxCell>
        <mxCell id="8NDlUTmJP2dTjy302EjL-45" style="edgeStyle=none;rounded=0;hachureGap=4;orthogonalLoop=1;jettySize=auto;html=1;exitX=0.5;exitY=0;exitDx=0;exitDy=0;exitPerimeter=0;entryX=0.5;entryY=1;entryDx=0;entryDy=0;entryPerimeter=0;fontFamily=Architects Daughter;fontSource=https%3A%2F%2Ffonts.googleapis.com%2Fcss%3Ffamily%3DArchitects%2BDaughter;fontSize=16;strokeWidth=3;strokeColor=#EA6B66;endArrow=none;endFill=0;" parent="1" source="hgnLhlOXLDX8HSQQPNeT-8" target="8NDlUTmJP2dTjy302EjL-5" edge="1">
          <mxGeometry relative="1" as="geometry">
            <mxPoint x="944" y="518" as="sourcePoint" />
          </mxGeometry>
        </mxCell>
        <mxCell id="8NDlUTmJP2dTjy302EjL-7" value="" style="shape=mxgraph.cisco.misc.route_switch_processor;html=1;dashed=0;fillColor=#036897;strokeColor=#ffffff;strokeWidth=2;verticalLabelPosition=bottom;verticalAlign=top;rounded=0;shadow=0;comic=0;fontFamily=Verdana;fontSize=12;" parent="1" vertex="1">
          <mxGeometry x="270.37" y="395" width="71" height="95" as="geometry" />
        </mxCell>
        <mxCell id="8NDlUTmJP2dTjy302EjL-67" value="Spine-1" style="text;html=1;strokeColor=none;fillColor=none;align=center;verticalAlign=middle;whiteSpace=wrap;rounded=0;fontSize=20;fontFamily=Helvetica;horizontal=1;" parent="1" vertex="1">
          <mxGeometry x="69" y="426" width="90" height="16" as="geometry" />
        </mxCell>
        <mxCell id="8NDlUTmJP2dTjy302EjL-68" value="Leaf-1&lt;br&gt;L0: 10.1.1.1/32&lt;br&gt;L1: 10.1.2.1/32" style="text;html=1;strokeColor=none;fillColor=none;align=left;verticalAlign=middle;whiteSpace=wrap;rounded=0;fontSize=20;fontFamily=Helvetica;horizontal=1;" parent="1" vertex="1">
          <mxGeometry x="600" y="-393" width="155" height="50" as="geometry" />
        </mxCell>
        <mxCell id="8NDlUTmJP2dTjy302EjL-69" value="Spine-2" style="text;html=1;strokeColor=none;fillColor=none;align=center;verticalAlign=middle;whiteSpace=wrap;rounded=0;fontSize=20;fontFamily=Helvetica;horizontal=1;" parent="1" vertex="1">
          <mxGeometry x="352" y="421" width="76" height="26" as="geometry" />
        </mxCell>
        <mxCell id="8NDlUTmJP2dTjy302EjL-74" value="Leaf-3&lt;br&gt;L0:&amp;nbsp;10.1.1.3/32&lt;br&gt;L1:&amp;nbsp;10.1.2.3/32;&amp;nbsp;&lt;br&gt;10.1.2.20/32 sec" style="text;html=1;strokeColor=none;fillColor=none;align=left;verticalAlign=middle;whiteSpace=wrap;rounded=0;fontSize=20;fontFamily=Helvetica;horizontal=1;" parent="1" vertex="1">
          <mxGeometry x="1100" y="-354" width="156" height="40" as="geometry" />
        </mxCell>
        <mxCell id="V7yZK2pKeIdHbW1tO0_u-21" value="" style="edgeStyle=none;rounded=0;hachureGap=4;orthogonalLoop=1;jettySize=auto;html=1;exitX=0.5;exitY=0;exitDx=0;exitDy=0;exitPerimeter=0;entryX=0.5;entryY=1;entryDx=0;entryDy=0;entryPerimeter=0;fontFamily=Architects Daughter;fontSource=https%3A%2F%2Ffonts.googleapis.com%2Fcss%3Ffamily%3DArchitects%2BDaughter;fontSize=16;endArrow=none;endFill=0;strokeWidth=3;strokeColor=#EA6B66;" parent="1" source="hgnLhlOXLDX8HSQQPNeT-8" target="8NDlUTmJP2dTjy302EjL-7" edge="1">
          <mxGeometry relative="1" as="geometry">
            <mxPoint x="944" y="518" as="sourcePoint" />
            <mxPoint x="870" y="286" as="targetPoint" />
          </mxGeometry>
        </mxCell>
        <mxCell id="V7yZK2pKeIdHbW1tO0_u-28" value="" style="edgeStyle=none;rounded=0;hachureGap=4;orthogonalLoop=1;jettySize=auto;html=1;exitX=0.5;exitY=0;exitDx=0;exitDy=0;exitPerimeter=0;entryX=0.5;entryY=1;entryDx=0;entryDy=0;entryPerimeter=0;fontFamily=Architects Daughter;fontSource=https%3A%2F%2Ffonts.googleapis.com%2Fcss%3Ffamily%3DArchitects%2BDaughter;fontSize=16;endArrow=none;endFill=0;strokeColor=#EA6B66;strokeWidth=3;" parent="1" source="hgnLhlOXLDX8HSQQPNeT-7" target="8NDlUTmJP2dTjy302EjL-7" edge="1">
          <mxGeometry relative="1" as="geometry">
            <mxPoint x="672.5" y="498" as="sourcePoint" />
            <mxPoint x="685" y="450.0000000000001" as="targetPoint" />
          </mxGeometry>
        </mxCell>
        <mxCell id="V7yZK2pKeIdHbW1tO0_u-30" value="" style="edgeStyle=none;rounded=0;hachureGap=4;orthogonalLoop=1;jettySize=auto;html=1;exitX=0.5;exitY=0;exitDx=0;exitDy=0;exitPerimeter=0;fontFamily=Architects Daughter;fontSource=https%3A%2F%2Ffonts.googleapis.com%2Fcss%3Ffamily%3DArchitects%2BDaughter;fontSize=16;endArrow=none;endFill=0;strokeWidth=3;strokeColor=#EA6B66;entryX=0.5;entryY=1;entryDx=0;entryDy=0;entryPerimeter=0;" parent="1" source="hgnLhlOXLDX8HSQQPNeT-7" target="8NDlUTmJP2dTjy302EjL-5" edge="1">
          <mxGeometry relative="1" as="geometry">
            <mxPoint x="672.5" y="498" as="sourcePoint" />
            <mxPoint x="591" y="248" as="targetPoint" />
          </mxGeometry>
        </mxCell>
        <mxCell id="V7yZK2pKeIdHbW1tO0_u-56" value="AS 65000" style="text;html=1;strokeColor=none;fillColor=none;align=center;verticalAlign=middle;whiteSpace=wrap;rounded=0;fontSize=24;fontFamily=Helvetica;horizontal=1;fontStyle=1;fontColor=#000000;" parent="1" vertex="1">
          <mxGeometry x="190" y="-430" width="270" height="28" as="geometry" />
        </mxCell>
        <mxCell id="CEXHskLTJOovul5yJfJE-7" value="AS 65001" style="text;html=1;strokeColor=none;fillColor=none;align=center;verticalAlign=middle;whiteSpace=wrap;rounded=0;fontSize=24;fontFamily=Helvetica;horizontal=1;fontStyle=1;fontColor=#000000;" parent="1" vertex="1">
          <mxGeometry x="520" y="-434" width="270" height="28" as="geometry" />
        </mxCell>
        <mxCell id="CEXHskLTJOovul5yJfJE-8" value="AS 65002" style="text;html=1;strokeColor=none;fillColor=none;align=center;verticalAlign=middle;whiteSpace=wrap;rounded=0;fontSize=24;fontFamily=Helvetica;horizontal=1;fontStyle=1;fontColor=#000000;" parent="1" vertex="1">
          <mxGeometry x="829" y="-200" width="270" height="28" as="geometry" />
        </mxCell>
        <mxCell id="CEXHskLTJOovul5yJfJE-9" value="AS 65003" style="text;html=1;strokeColor=none;fillColor=none;align=center;verticalAlign=middle;whiteSpace=wrap;rounded=0;fontSize=24;fontFamily=Helvetica;horizontal=1;fontStyle=1;fontColor=#000000;" parent="1" vertex="1">
          <mxGeometry x="1033" y="-420" width="270" height="28" as="geometry" />
        </mxCell>
        <mxCell id="8NDlUTmJP2dTjy302EjL-72" value="Leaf-2&lt;br&gt;&lt;div style=&quot;&quot;&gt;&lt;span style=&quot;background-color: initial;&quot;&gt;L0:&amp;nbsp;10.1.1.2/32&lt;/span&gt;&lt;/div&gt;&lt;div style=&quot;&quot;&gt;&lt;span style=&quot;background-color: initial;&quot;&gt;L1:&amp;nbsp;&lt;/span&gt;&lt;span style=&quot;background-color: initial;&quot;&gt;10.1.2.2/32;&lt;/span&gt;&lt;/div&gt;&lt;div style=&quot;&quot;&gt;&lt;span style=&quot;background-color: initial;&quot;&gt;10.1.2.20/32 sec&lt;/span&gt;&lt;/div&gt;" style="text;html=1;strokeColor=none;fillColor=none;align=left;verticalAlign=middle;whiteSpace=wrap;rounded=0;fontSize=20;fontFamily=Helvetica;horizontal=1;" parent="1" vertex="1">
          <mxGeometry x="889" y="-148" width="170" height="50" as="geometry" />
        </mxCell>
        <mxCell id="8NDlUTmJP2dTjy302EjL-5" value="" style="shape=mxgraph.cisco.misc.route_switch_processor;html=1;dashed=0;fillColor=#036897;strokeColor=#ffffff;strokeWidth=2;verticalLabelPosition=bottom;verticalAlign=top;rounded=0;shadow=0;comic=0;fontFamily=Verdana;fontSize=12;" parent="1" vertex="1">
          <mxGeometry x="155" y="395" width="71" height="95" as="geometry" />
        </mxCell>
        <mxCell id="hgnLhlOXLDX8HSQQPNeT-7" value="" style="shape=mxgraph.cisco.switches.layer_3_switch;sketch=0;html=1;pointerEvents=1;dashed=0;fillColor=#036897;strokeColor=#ffffff;strokeWidth=2;verticalLabelPosition=bottom;verticalAlign=top;align=center;outlineConnect=0;hachureGap=4;jiggle=2;curveFitting=1;fontFamily=Architects Daughter;fontSource=https%3A%2F%2Ffonts.googleapis.com%2Fcss%3Ffamily%3DArchitects%2BDaughter;fontSize=20;" parent="1" vertex="1">
          <mxGeometry x="96" y="601" width="59" height="60" as="geometry" />
        </mxCell>
        <mxCell id="hgnLhlOXLDX8HSQQPNeT-8" value="" style="shape=mxgraph.cisco.switches.layer_3_switch;sketch=0;html=1;pointerEvents=1;dashed=0;fillColor=#036897;strokeColor=#ffffff;strokeWidth=2;verticalLabelPosition=bottom;verticalAlign=top;align=center;outlineConnect=0;hachureGap=4;jiggle=2;curveFitting=1;fontFamily=Architects Daughter;fontSource=https%3A%2F%2Ffonts.googleapis.com%2Fcss%3Ffamily%3DArchitects%2BDaughter;fontSize=20;" parent="1" vertex="1">
          <mxGeometry x="335" y="601" width="59" height="60" as="geometry" />
        </mxCell>
        <mxCell id="hgnLhlOXLDX8HSQQPNeT-17" style="edgeStyle=none;rounded=0;hachureGap=4;orthogonalLoop=1;jettySize=auto;html=1;exitX=0.5;exitY=0;exitDx=0;exitDy=0;exitPerimeter=0;fontFamily=Architects Daughter;fontSource=https%3A%2F%2Ffonts.googleapis.com%2Fcss%3Ffamily%3DArchitects%2BDaughter;fontSize=16;strokeColor=#EA6B66;endArrow=none;endFill=0;strokeWidth=3;entryX=0.5;entryY=1;entryDx=0;entryDy=0;entryPerimeter=0;" parent="1" source="6Dfauh0U3FbBK-AMj__--1" target="hgnLhlOXLDX8HSQQPNeT-8" edge="1">
          <mxGeometry relative="1" as="geometry">
            <mxPoint x="301.4900000000001" y="591.5" as="sourcePoint" />
            <mxPoint x="370.75" y="609" as="targetPoint" />
          </mxGeometry>
        </mxCell>
        <mxCell id="C9soJnvK-WdOjWq8ESSx-10" value="" style="rounded=0;whiteSpace=wrap;html=1;strokeColor=#660066;strokeWidth=1;" parent="1" vertex="1">
          <mxGeometry x="-250" y="-410" width="347" height="190" as="geometry" />
        </mxCell>
        <mxCell id="C9soJnvK-WdOjWq8ESSx-12" value="&lt;div&gt;&lt;font color=&quot;#004c99&quot;&gt;VRF-1:&lt;/font&gt;&lt;/div&gt;&lt;div&gt;&lt;span style=&quot;color: rgb(0, 76, 153); background-color: initial;&quot;&gt;VLAN 10/VNI 10010/IP 10.1.3.1/26&lt;/span&gt;&lt;/div&gt;&lt;div&gt;&lt;font color=&quot;#004c99&quot;&gt;VRF-2:&lt;/font&gt;&lt;/div&gt;&lt;div&gt;&lt;font color=&quot;#004c99&quot;&gt;VLAN 20/VNI 10020/IP 10.1.3.65/26&lt;/font&gt;&lt;/div&gt;&lt;div&gt;&lt;font color=&quot;#004c99&quot;&gt;VRF-3:&lt;/font&gt;&lt;/div&gt;&lt;div&gt;&lt;font color=&quot;#004c99&quot;&gt;VLAN 30/VNI 10030/IP 10.1.3.129/26&lt;/font&gt;&lt;/div&gt;&lt;div&gt;&lt;br&gt;&lt;/div&gt;" style="text;html=1;strokeColor=none;fillColor=none;align=left;verticalAlign=middle;whiteSpace=wrap;rounded=0;fontSize=20;fontFamily=Helvetica;horizontal=1;strokeWidth=0;" parent="1" vertex="1">
          <mxGeometry x="-246" y="-400" width="340" height="170" as="geometry" />
        </mxCell>
        <mxCell id="cSVi1MsGPV3FUOWv3ege-2" style="edgeStyle=none;rounded=0;hachureGap=4;orthogonalLoop=1;jettySize=auto;html=1;fontFamily=Architects Daughter;fontSource=https%3A%2F%2Ffonts.googleapis.com%2Fcss%3Ffamily%3DArchitects%2BDaughter;fontSize=16;strokeColor=#EA6B66;endArrow=none;endFill=0;strokeWidth=3;entryX=0.5;entryY=0;entryDx=0;entryDy=0;entryPerimeter=0;exitX=0.5;exitY=1;exitDx=0;exitDy=0;exitPerimeter=0;" parent="1" source="hgnLhlOXLDX8HSQQPNeT-7" target="6Dfauh0U3FbBK-AMj__--1" edge="1">
          <mxGeometry relative="1" as="geometry">
            <mxPoint x="234.87" y="613" as="sourcePoint" />
            <mxPoint x="301.4900000000001" y="591.5" as="targetPoint" />
          </mxGeometry>
        </mxCell>
        <mxCell id="cSVi1MsGPV3FUOWv3ege-3" style="edgeStyle=none;rounded=0;hachureGap=4;orthogonalLoop=1;jettySize=auto;html=1;fontFamily=Architects Daughter;fontSource=https%3A%2F%2Ffonts.googleapis.com%2Fcss%3Ffamily%3DArchitects%2BDaughter;fontSize=16;strokeColor=#00CC00;endArrow=none;endFill=0;strokeWidth=3;entryX=0;entryY=0.5;entryDx=0;entryDy=0;entryPerimeter=0;" parent="1" source="cSVi1MsGPV3FUOWv3ege-5" target="hgnLhlOXLDX8HSQQPNeT-8" edge="1">
          <mxGeometry relative="1" as="geometry">
            <mxPoint x="158.24" y="552" as="sourcePoint" />
            <mxPoint x="285.24" y="612" as="targetPoint" />
          </mxGeometry>
        </mxCell>
        <mxCell id="6Dfauh0U3FbBK-AMj__--1" value="" style="shape=mxgraph.cisco.switches.layer_3_switch;sketch=0;html=1;pointerEvents=1;dashed=0;fillColor=#036897;strokeColor=#ffffff;strokeWidth=2;verticalLabelPosition=bottom;verticalAlign=top;align=center;outlineConnect=0;hachureGap=4;jiggle=2;curveFitting=1;fontFamily=Architects Daughter;fontSource=https%3A%2F%2Ffonts.googleapis.com%2Fcss%3Ffamily%3DArchitects%2BDaughter;fontSize=20;" parent="1" vertex="1">
          <mxGeometry x="215" y="701" width="59" height="60" as="geometry" />
        </mxCell>
        <mxCell id="hP2QszLyOP73C7yzCdP5-15" value="Client-1" style="text;html=1;strokeColor=none;fillColor=none;align=center;verticalAlign=middle;whiteSpace=wrap;rounded=0;fontSize=20;fontFamily=Helvetica;horizontal=1;" parent="1" vertex="1">
          <mxGeometry x="204.75" y="769.75" width="88.5" height="20.5" as="geometry" />
        </mxCell>
        <mxCell id="evcSbRz_riRqxY8VbHda-1" value="" style="edgeStyle=none;rounded=0;hachureGap=4;orthogonalLoop=1;jettySize=auto;html=1;fontFamily=Architects Daughter;fontSource=https%3A%2F%2Ffonts.googleapis.com%2Fcss%3Ffamily%3DArchitects%2BDaughter;fontSize=16;strokeColor=#00CC00;endArrow=none;endFill=0;strokeWidth=3;entryX=0;entryY=0.5;entryDx=0;entryDy=0;entryPerimeter=0;" edge="1" parent="1" source="hgnLhlOXLDX8HSQQPNeT-7" target="cSVi1MsGPV3FUOWv3ege-5">
          <mxGeometry relative="1" as="geometry">
            <mxPoint x="204" y="502" as="sourcePoint" />
            <mxPoint x="417" y="502" as="targetPoint" />
          </mxGeometry>
        </mxCell>
        <mxCell id="cSVi1MsGPV3FUOWv3ege-5" value="&lt;font style=&quot;font-size: 12px;&quot;&gt;peer-link&lt;/font&gt;" style="text;html=1;strokeColor=none;fillColor=default;align=center;verticalAlign=bottom;whiteSpace=wrap;rounded=1;fontSize=20;fontFamily=Helvetica;horizontal=1;gradientColor=none;fillStyle=auto;glass=0;" parent="1" vertex="1">
          <mxGeometry x="215" y="621" width="68" height="20" as="geometry" />
        </mxCell>
        <mxCell id="evcSbRz_riRqxY8VbHda-5" value="" style="shape=mxgraph.cisco.switches.layer_3_switch;sketch=0;html=1;pointerEvents=1;dashed=0;fillColor=#036897;strokeColor=#ffffff;strokeWidth=2;verticalLabelPosition=bottom;verticalAlign=top;align=center;outlineConnect=0;hachureGap=4;jiggle=2;curveFitting=1;fontFamily=Architects Daughter;fontSource=https%3A%2F%2Ffonts.googleapis.com%2Fcss%3Ffamily%3DArchitects%2BDaughter;fontSize=20;" vertex="1" parent="1">
          <mxGeometry x="394" y="241" width="59" height="60" as="geometry" />
        </mxCell>
        <mxCell id="evcSbRz_riRqxY8VbHda-6" value="" style="shape=mxgraph.cisco.switches.layer_3_switch;sketch=0;html=1;pointerEvents=1;dashed=0;fillColor=#036897;strokeColor=#ffffff;strokeWidth=2;verticalLabelPosition=bottom;verticalAlign=top;align=center;outlineConnect=0;hachureGap=4;jiggle=2;curveFitting=1;fontFamily=Architects Daughter;fontSource=https%3A%2F%2Ffonts.googleapis.com%2Fcss%3Ffamily%3DArchitects%2BDaughter;fontSize=20;" vertex="1" parent="1">
          <mxGeometry x="245" y="241" width="59" height="60" as="geometry" />
        </mxCell>
        <mxCell id="evcSbRz_riRqxY8VbHda-7" value="" style="shape=mxgraph.cisco.switches.layer_3_switch;sketch=0;html=1;pointerEvents=1;dashed=0;fillColor=#036897;strokeColor=#ffffff;strokeWidth=2;verticalLabelPosition=bottom;verticalAlign=top;align=center;outlineConnect=0;hachureGap=4;jiggle=2;curveFitting=1;fontFamily=Architects Daughter;fontSource=https%3A%2F%2Ffonts.googleapis.com%2Fcss%3Ffamily%3DArchitects%2BDaughter;fontSize=20;" vertex="1" parent="1">
          <mxGeometry x="394" y="121" width="59" height="60" as="geometry" />
        </mxCell>
        <mxCell id="evcSbRz_riRqxY8VbHda-8" value="" style="shape=mxgraph.cisco.switches.layer_3_switch;sketch=0;html=1;pointerEvents=1;dashed=0;fillColor=#036897;strokeColor=#ffffff;strokeWidth=2;verticalLabelPosition=bottom;verticalAlign=top;align=center;outlineConnect=0;hachureGap=4;jiggle=2;curveFitting=1;fontFamily=Architects Daughter;fontSource=https%3A%2F%2Ffonts.googleapis.com%2Fcss%3Ffamily%3DArchitects%2BDaughter;fontSize=20;" vertex="1" parent="1">
          <mxGeometry x="864" y="241" width="59" height="60" as="geometry" />
        </mxCell>
        <mxCell id="evcSbRz_riRqxY8VbHda-9" value="" style="shape=mxgraph.cisco.switches.layer_3_switch;sketch=0;html=1;pointerEvents=1;dashed=0;fillColor=#036897;strokeColor=#ffffff;strokeWidth=2;verticalLabelPosition=bottom;verticalAlign=top;align=center;outlineConnect=0;hachureGap=4;jiggle=2;curveFitting=1;fontFamily=Architects Daughter;fontSource=https%3A%2F%2Ffonts.googleapis.com%2Fcss%3Ffamily%3DArchitects%2BDaughter;fontSize=20;" vertex="1" parent="1">
          <mxGeometry x="715" y="241" width="59" height="60" as="geometry" />
        </mxCell>
        <mxCell id="evcSbRz_riRqxY8VbHda-10" value="" style="shape=mxgraph.cisco.switches.layer_3_switch;sketch=0;html=1;pointerEvents=1;dashed=0;fillColor=#036897;strokeColor=#ffffff;strokeWidth=2;verticalLabelPosition=bottom;verticalAlign=top;align=center;outlineConnect=0;hachureGap=4;jiggle=2;curveFitting=1;fontFamily=Architects Daughter;fontSource=https%3A%2F%2Ffonts.googleapis.com%2Fcss%3Ffamily%3DArchitects%2BDaughter;fontSize=20;" vertex="1" parent="1">
          <mxGeometry x="715" y="121" width="59" height="60" as="geometry" />
        </mxCell>
        <mxCell id="evcSbRz_riRqxY8VbHda-13" style="edgeStyle=none;rounded=0;hachureGap=4;orthogonalLoop=1;jettySize=auto;html=1;exitX=0.5;exitY=0;exitDx=0;exitDy=0;exitPerimeter=0;entryX=0.5;entryY=1;entryDx=0;entryDy=0;entryPerimeter=0;fontFamily=Architects Daughter;fontSource=https%3A%2F%2Ffonts.googleapis.com%2Fcss%3Ffamily%3DArchitects%2BDaughter;fontSize=16;strokeWidth=3;strokeColor=#EA6B66;endArrow=none;endFill=0;" edge="1" source="evcSbRz_riRqxY8VbHda-22" target="evcSbRz_riRqxY8VbHda-20" parent="1">
          <mxGeometry relative="1" as="geometry">
            <mxPoint x="1583" y="519" as="sourcePoint" />
          </mxGeometry>
        </mxCell>
        <mxCell id="evcSbRz_riRqxY8VbHda-14" value="" style="shape=mxgraph.cisco.misc.route_switch_processor;html=1;dashed=0;fillColor=#036897;strokeColor=#ffffff;strokeWidth=2;verticalLabelPosition=bottom;verticalAlign=top;rounded=0;shadow=0;comic=0;fontFamily=Verdana;fontSize=12;" vertex="1" parent="1">
          <mxGeometry x="909.37" y="396" width="71" height="95" as="geometry" />
        </mxCell>
        <mxCell id="evcSbRz_riRqxY8VbHda-15" value="Spine-3" style="text;html=1;strokeColor=none;fillColor=none;align=center;verticalAlign=middle;whiteSpace=wrap;rounded=0;fontSize=20;fontFamily=Helvetica;horizontal=1;" vertex="1" parent="1">
          <mxGeometry x="706.5" y="431" width="90" height="16" as="geometry" />
        </mxCell>
        <mxCell id="evcSbRz_riRqxY8VbHda-16" value="Spine-4" style="text;html=1;strokeColor=none;fillColor=none;align=center;verticalAlign=middle;whiteSpace=wrap;rounded=0;fontSize=20;fontFamily=Helvetica;horizontal=1;" vertex="1" parent="1">
          <mxGeometry x="984" y="426" width="76" height="26" as="geometry" />
        </mxCell>
        <mxCell id="evcSbRz_riRqxY8VbHda-17" value="" style="edgeStyle=none;rounded=0;hachureGap=4;orthogonalLoop=1;jettySize=auto;html=1;exitX=0.5;exitY=0;exitDx=0;exitDy=0;exitPerimeter=0;entryX=0.5;entryY=1;entryDx=0;entryDy=0;entryPerimeter=0;fontFamily=Architects Daughter;fontSource=https%3A%2F%2Ffonts.googleapis.com%2Fcss%3Ffamily%3DArchitects%2BDaughter;fontSize=16;endArrow=none;endFill=0;strokeWidth=3;strokeColor=#EA6B66;" edge="1" source="evcSbRz_riRqxY8VbHda-22" target="evcSbRz_riRqxY8VbHda-14" parent="1">
          <mxGeometry relative="1" as="geometry">
            <mxPoint x="1583" y="519" as="sourcePoint" />
            <mxPoint x="1509" y="287" as="targetPoint" />
          </mxGeometry>
        </mxCell>
        <mxCell id="evcSbRz_riRqxY8VbHda-18" value="" style="edgeStyle=none;rounded=0;hachureGap=4;orthogonalLoop=1;jettySize=auto;html=1;exitX=0.5;exitY=0;exitDx=0;exitDy=0;exitPerimeter=0;entryX=0.5;entryY=1;entryDx=0;entryDy=0;entryPerimeter=0;fontFamily=Architects Daughter;fontSource=https%3A%2F%2Ffonts.googleapis.com%2Fcss%3Ffamily%3DArchitects%2BDaughter;fontSize=16;endArrow=none;endFill=0;strokeColor=#EA6B66;strokeWidth=3;" edge="1" source="evcSbRz_riRqxY8VbHda-21" target="evcSbRz_riRqxY8VbHda-14" parent="1">
          <mxGeometry relative="1" as="geometry">
            <mxPoint x="1311.5" y="499" as="sourcePoint" />
            <mxPoint x="1324" y="451.0000000000001" as="targetPoint" />
          </mxGeometry>
        </mxCell>
        <mxCell id="evcSbRz_riRqxY8VbHda-19" value="" style="edgeStyle=none;rounded=0;hachureGap=4;orthogonalLoop=1;jettySize=auto;html=1;exitX=0.5;exitY=0;exitDx=0;exitDy=0;exitPerimeter=0;fontFamily=Architects Daughter;fontSource=https%3A%2F%2Ffonts.googleapis.com%2Fcss%3Ffamily%3DArchitects%2BDaughter;fontSize=16;endArrow=none;endFill=0;strokeWidth=3;strokeColor=#EA6B66;entryX=0.5;entryY=1;entryDx=0;entryDy=0;entryPerimeter=0;" edge="1" source="evcSbRz_riRqxY8VbHda-21" target="evcSbRz_riRqxY8VbHda-20" parent="1">
          <mxGeometry relative="1" as="geometry">
            <mxPoint x="1311.5" y="499" as="sourcePoint" />
            <mxPoint x="1230" y="249" as="targetPoint" />
          </mxGeometry>
        </mxCell>
        <mxCell id="evcSbRz_riRqxY8VbHda-20" value="" style="shape=mxgraph.cisco.misc.route_switch_processor;html=1;dashed=0;fillColor=#036897;strokeColor=#ffffff;strokeWidth=2;verticalLabelPosition=bottom;verticalAlign=top;rounded=0;shadow=0;comic=0;fontFamily=Verdana;fontSize=12;" vertex="1" parent="1">
          <mxGeometry x="794" y="396" width="71" height="95" as="geometry" />
        </mxCell>
        <mxCell id="evcSbRz_riRqxY8VbHda-21" value="" style="shape=mxgraph.cisco.switches.layer_3_switch;sketch=0;html=1;pointerEvents=1;dashed=0;fillColor=#036897;strokeColor=#ffffff;strokeWidth=2;verticalLabelPosition=bottom;verticalAlign=top;align=center;outlineConnect=0;hachureGap=4;jiggle=2;curveFitting=1;fontFamily=Architects Daughter;fontSource=https%3A%2F%2Ffonts.googleapis.com%2Fcss%3Ffamily%3DArchitects%2BDaughter;fontSize=20;" vertex="1" parent="1">
          <mxGeometry x="735" y="602" width="59" height="60" as="geometry" />
        </mxCell>
        <mxCell id="evcSbRz_riRqxY8VbHda-22" value="" style="shape=mxgraph.cisco.switches.layer_3_switch;sketch=0;html=1;pointerEvents=1;dashed=0;fillColor=#036897;strokeColor=#ffffff;strokeWidth=2;verticalLabelPosition=bottom;verticalAlign=top;align=center;outlineConnect=0;hachureGap=4;jiggle=2;curveFitting=1;fontFamily=Architects Daughter;fontSource=https%3A%2F%2Ffonts.googleapis.com%2Fcss%3Ffamily%3DArchitects%2BDaughter;fontSize=20;" vertex="1" parent="1">
          <mxGeometry x="974" y="602" width="59" height="60" as="geometry" />
        </mxCell>
        <mxCell id="evcSbRz_riRqxY8VbHda-23" style="edgeStyle=none;rounded=0;hachureGap=4;orthogonalLoop=1;jettySize=auto;html=1;exitX=0.5;exitY=0;exitDx=0;exitDy=0;exitPerimeter=0;fontFamily=Architects Daughter;fontSource=https%3A%2F%2Ffonts.googleapis.com%2Fcss%3Ffamily%3DArchitects%2BDaughter;fontSize=16;strokeColor=#EA6B66;endArrow=none;endFill=0;strokeWidth=3;entryX=0.5;entryY=1;entryDx=0;entryDy=0;entryPerimeter=0;" edge="1" source="evcSbRz_riRqxY8VbHda-26" target="evcSbRz_riRqxY8VbHda-22" parent="1">
          <mxGeometry relative="1" as="geometry">
            <mxPoint x="940.4900000000001" y="592.5" as="sourcePoint" />
            <mxPoint x="1009.75" y="610" as="targetPoint" />
          </mxGeometry>
        </mxCell>
        <mxCell id="evcSbRz_riRqxY8VbHda-24" style="edgeStyle=none;rounded=0;hachureGap=4;orthogonalLoop=1;jettySize=auto;html=1;fontFamily=Architects Daughter;fontSource=https%3A%2F%2Ffonts.googleapis.com%2Fcss%3Ffamily%3DArchitects%2BDaughter;fontSize=16;strokeColor=#EA6B66;endArrow=none;endFill=0;strokeWidth=3;entryX=0.5;entryY=0;entryDx=0;entryDy=0;entryPerimeter=0;exitX=0.5;exitY=1;exitDx=0;exitDy=0;exitPerimeter=0;" edge="1" source="evcSbRz_riRqxY8VbHda-21" target="evcSbRz_riRqxY8VbHda-26" parent="1">
          <mxGeometry relative="1" as="geometry">
            <mxPoint x="873.87" y="614" as="sourcePoint" />
            <mxPoint x="940.4900000000001" y="592.5" as="targetPoint" />
          </mxGeometry>
        </mxCell>
        <mxCell id="evcSbRz_riRqxY8VbHda-25" style="edgeStyle=none;rounded=0;hachureGap=4;orthogonalLoop=1;jettySize=auto;html=1;fontFamily=Architects Daughter;fontSource=https%3A%2F%2Ffonts.googleapis.com%2Fcss%3Ffamily%3DArchitects%2BDaughter;fontSize=16;strokeColor=#00CC00;endArrow=none;endFill=0;strokeWidth=3;entryX=0;entryY=0.5;entryDx=0;entryDy=0;entryPerimeter=0;" edge="1" source="evcSbRz_riRqxY8VbHda-29" target="evcSbRz_riRqxY8VbHda-22" parent="1">
          <mxGeometry relative="1" as="geometry">
            <mxPoint x="797.24" y="553" as="sourcePoint" />
            <mxPoint x="924.24" y="613" as="targetPoint" />
          </mxGeometry>
        </mxCell>
        <mxCell id="evcSbRz_riRqxY8VbHda-26" value="" style="shape=mxgraph.cisco.switches.layer_3_switch;sketch=0;html=1;pointerEvents=1;dashed=0;fillColor=#036897;strokeColor=#ffffff;strokeWidth=2;verticalLabelPosition=bottom;verticalAlign=top;align=center;outlineConnect=0;hachureGap=4;jiggle=2;curveFitting=1;fontFamily=Architects Daughter;fontSource=https%3A%2F%2Ffonts.googleapis.com%2Fcss%3Ffamily%3DArchitects%2BDaughter;fontSize=20;" vertex="1" parent="1">
          <mxGeometry x="854" y="702" width="59" height="60" as="geometry" />
        </mxCell>
        <mxCell id="evcSbRz_riRqxY8VbHda-27" value="Client-2" style="text;html=1;strokeColor=none;fillColor=none;align=center;verticalAlign=middle;whiteSpace=wrap;rounded=0;fontSize=20;fontFamily=Helvetica;horizontal=1;" vertex="1" parent="1">
          <mxGeometry x="843.75" y="770.75" width="88.5" height="20.5" as="geometry" />
        </mxCell>
        <mxCell id="evcSbRz_riRqxY8VbHda-28" value="" style="edgeStyle=none;rounded=0;hachureGap=4;orthogonalLoop=1;jettySize=auto;html=1;fontFamily=Architects Daughter;fontSource=https%3A%2F%2Ffonts.googleapis.com%2Fcss%3Ffamily%3DArchitects%2BDaughter;fontSize=16;strokeColor=#00CC00;endArrow=none;endFill=0;strokeWidth=3;entryX=0;entryY=0.5;entryDx=0;entryDy=0;entryPerimeter=0;" edge="1" source="evcSbRz_riRqxY8VbHda-21" target="evcSbRz_riRqxY8VbHda-29" parent="1">
          <mxGeometry relative="1" as="geometry">
            <mxPoint x="843" y="503" as="sourcePoint" />
            <mxPoint x="1056" y="503" as="targetPoint" />
          </mxGeometry>
        </mxCell>
        <mxCell id="evcSbRz_riRqxY8VbHda-29" value="&lt;font style=&quot;font-size: 12px;&quot;&gt;peer-link&lt;/font&gt;" style="text;html=1;strokeColor=none;fillColor=default;align=center;verticalAlign=bottom;whiteSpace=wrap;rounded=1;fontSize=20;fontFamily=Helvetica;horizontal=1;gradientColor=none;fillStyle=auto;glass=0;" vertex="1" parent="1">
          <mxGeometry x="854" y="622" width="68" height="20" as="geometry" />
        </mxCell>
        <mxCell id="evcSbRz_riRqxY8VbHda-31" value="" style="edgeStyle=none;rounded=0;hachureGap=4;orthogonalLoop=1;jettySize=auto;html=1;exitX=0.5;exitY=1;exitDx=0;exitDy=0;exitPerimeter=0;entryX=0.5;entryY=0;entryDx=0;entryDy=0;entryPerimeter=0;fontFamily=Architects Daughter;fontSource=https%3A%2F%2Ffonts.googleapis.com%2Fcss%3Ffamily%3DArchitects%2BDaughter;fontSize=16;endArrow=none;endFill=0;strokeWidth=3;strokeColor=#EA6B66;" edge="1" parent="1" source="evcSbRz_riRqxY8VbHda-6" target="8NDlUTmJP2dTjy302EjL-5">
          <mxGeometry relative="1" as="geometry">
            <mxPoint x="512.13" y="542" as="sourcePoint" />
            <mxPoint x="453.13" y="431" as="targetPoint" />
          </mxGeometry>
        </mxCell>
        <mxCell id="evcSbRz_riRqxY8VbHda-32" value="" style="edgeStyle=none;rounded=0;hachureGap=4;orthogonalLoop=1;jettySize=auto;html=1;exitX=0.5;exitY=1;exitDx=0;exitDy=0;exitPerimeter=0;entryX=0.5;entryY=0;entryDx=0;entryDy=0;entryPerimeter=0;fontFamily=Architects Daughter;fontSource=https%3A%2F%2Ffonts.googleapis.com%2Fcss%3Ffamily%3DArchitects%2BDaughter;fontSize=16;endArrow=none;endFill=0;strokeWidth=3;strokeColor=#EA6B66;" edge="1" parent="1" source="evcSbRz_riRqxY8VbHda-5" target="8NDlUTmJP2dTjy302EjL-5">
          <mxGeometry relative="1" as="geometry">
            <mxPoint x="419.5" y="311" as="sourcePoint" />
            <mxPoint x="335.5" y="405" as="targetPoint" />
          </mxGeometry>
        </mxCell>
        <mxCell id="evcSbRz_riRqxY8VbHda-34" value="" style="edgeStyle=none;rounded=0;hachureGap=4;orthogonalLoop=1;jettySize=auto;html=1;exitX=0.5;exitY=1;exitDx=0;exitDy=0;exitPerimeter=0;entryX=0.5;entryY=0;entryDx=0;entryDy=0;entryPerimeter=0;fontFamily=Architects Daughter;fontSource=https%3A%2F%2Ffonts.googleapis.com%2Fcss%3Ffamily%3DArchitects%2BDaughter;fontSize=16;endArrow=none;endFill=0;strokeWidth=3;strokeColor=#EA6B66;" edge="1" parent="1" source="evcSbRz_riRqxY8VbHda-6" target="8NDlUTmJP2dTjy302EjL-7">
          <mxGeometry relative="1" as="geometry">
            <mxPoint x="339.5" y="321" as="sourcePoint" />
            <mxPoint x="255.5" y="415" as="targetPoint" />
          </mxGeometry>
        </mxCell>
        <mxCell id="evcSbRz_riRqxY8VbHda-35" value="" style="edgeStyle=none;rounded=0;hachureGap=4;orthogonalLoop=1;jettySize=auto;html=1;entryX=0.5;entryY=0;entryDx=0;entryDy=0;entryPerimeter=0;fontFamily=Architects Daughter;fontSource=https%3A%2F%2Ffonts.googleapis.com%2Fcss%3Ffamily%3DArchitects%2BDaughter;fontSize=16;endArrow=none;endFill=0;strokeWidth=3;strokeColor=#EA6B66;" edge="1" parent="1" target="8NDlUTmJP2dTjy302EjL-7">
          <mxGeometry relative="1" as="geometry">
            <mxPoint x="425" y="301" as="sourcePoint" />
            <mxPoint x="204.25" y="415" as="targetPoint" />
          </mxGeometry>
        </mxCell>
        <mxCell id="evcSbRz_riRqxY8VbHda-37" value="" style="edgeStyle=none;rounded=0;hachureGap=4;orthogonalLoop=1;jettySize=auto;html=1;entryX=0.5;entryY=0;entryDx=0;entryDy=0;entryPerimeter=0;fontFamily=Architects Daughter;fontSource=https%3A%2F%2Ffonts.googleapis.com%2Fcss%3Ffamily%3DArchitects%2BDaughter;fontSize=16;endArrow=none;endFill=0;strokeWidth=3;strokeColor=#EA6B66;exitX=0.5;exitY=1;exitDx=0;exitDy=0;exitPerimeter=0;" edge="1" parent="1" source="evcSbRz_riRqxY8VbHda-7" target="evcSbRz_riRqxY8VbHda-5">
          <mxGeometry relative="1" as="geometry">
            <mxPoint x="435" y="201" as="sourcePoint" />
            <mxPoint x="304.5" y="271" as="targetPoint" />
          </mxGeometry>
        </mxCell>
        <mxCell id="evcSbRz_riRqxY8VbHda-38" value="" style="edgeStyle=none;rounded=0;hachureGap=4;orthogonalLoop=1;jettySize=auto;html=1;exitX=0;exitY=0.5;exitDx=0;exitDy=0;exitPerimeter=0;entryX=1;entryY=0.5;entryDx=0;entryDy=0;entryPerimeter=0;fontFamily=Architects Daughter;fontSource=https%3A%2F%2Ffonts.googleapis.com%2Fcss%3Ffamily%3DArchitects%2BDaughter;fontSize=16;endArrow=none;endFill=0;strokeWidth=3;strokeColor=#EA6B66;" edge="1" parent="1" source="evcSbRz_riRqxY8VbHda-10" target="evcSbRz_riRqxY8VbHda-7">
          <mxGeometry relative="1" as="geometry">
            <mxPoint x="655.5" y="181" as="sourcePoint" />
            <mxPoint x="506.5" y="241" as="targetPoint" />
          </mxGeometry>
        </mxCell>
        <mxCell id="evcSbRz_riRqxY8VbHda-39" value="" style="edgeStyle=none;rounded=0;hachureGap=4;orthogonalLoop=1;jettySize=auto;html=1;exitX=0.5;exitY=1;exitDx=0;exitDy=0;exitPerimeter=0;entryX=0.5;entryY=0;entryDx=0;entryDy=0;entryPerimeter=0;fontFamily=Architects Daughter;fontSource=https%3A%2F%2Ffonts.googleapis.com%2Fcss%3Ffamily%3DArchitects%2BDaughter;fontSize=16;endArrow=none;endFill=0;strokeWidth=3;strokeColor=#EA6B66;" edge="1" parent="1" source="evcSbRz_riRqxY8VbHda-10" target="evcSbRz_riRqxY8VbHda-9">
          <mxGeometry relative="1" as="geometry">
            <mxPoint x="684.5" y="241" as="sourcePoint" />
            <mxPoint x="535.5" y="301" as="targetPoint" />
          </mxGeometry>
        </mxCell>
        <mxCell id="evcSbRz_riRqxY8VbHda-40" value="" style="edgeStyle=none;rounded=0;hachureGap=4;orthogonalLoop=1;jettySize=auto;html=1;exitX=0.5;exitY=1;exitDx=0;exitDy=0;exitPerimeter=0;entryX=0.5;entryY=0;entryDx=0;entryDy=0;entryPerimeter=0;fontFamily=Architects Daughter;fontSource=https%3A%2F%2Ffonts.googleapis.com%2Fcss%3Ffamily%3DArchitects%2BDaughter;fontSize=16;endArrow=none;endFill=0;strokeWidth=3;strokeColor=#EA6B66;" edge="1" parent="1" source="evcSbRz_riRqxY8VbHda-10" target="evcSbRz_riRqxY8VbHda-8">
          <mxGeometry relative="1" as="geometry">
            <mxPoint x="805.5" y="171" as="sourcePoint" />
            <mxPoint x="805.5" y="231" as="targetPoint" />
          </mxGeometry>
        </mxCell>
        <mxCell id="evcSbRz_riRqxY8VbHda-42" value="" style="edgeStyle=none;rounded=0;hachureGap=4;orthogonalLoop=1;jettySize=auto;html=1;exitX=0.5;exitY=1;exitDx=0;exitDy=0;exitPerimeter=0;fontFamily=Architects Daughter;fontSource=https%3A%2F%2Ffonts.googleapis.com%2Fcss%3Ffamily%3DArchitects%2BDaughter;fontSize=16;endArrow=none;endFill=0;strokeWidth=3;strokeColor=#EA6B66;entryX=0.5;entryY=0;entryDx=0;entryDy=0;entryPerimeter=0;" edge="1" parent="1" source="evcSbRz_riRqxY8VbHda-9" target="evcSbRz_riRqxY8VbHda-20">
          <mxGeometry relative="1" as="geometry">
            <mxPoint x="829.66" y="336" as="sourcePoint" />
            <mxPoint x="835" y="351" as="targetPoint" />
          </mxGeometry>
        </mxCell>
        <mxCell id="evcSbRz_riRqxY8VbHda-43" value="" style="edgeStyle=none;rounded=0;hachureGap=4;orthogonalLoop=1;jettySize=auto;html=1;fontFamily=Architects Daughter;fontSource=https%3A%2F%2Ffonts.googleapis.com%2Fcss%3Ffamily%3DArchitects%2BDaughter;fontSize=16;endArrow=none;endFill=0;strokeWidth=3;strokeColor=#EA6B66;entryX=0.5;entryY=0;entryDx=0;entryDy=0;entryPerimeter=0;exitX=0.5;exitY=1;exitDx=0;exitDy=0;exitPerimeter=0;" edge="1" parent="1" source="evcSbRz_riRqxY8VbHda-8" target="evcSbRz_riRqxY8VbHda-20">
          <mxGeometry relative="1" as="geometry">
            <mxPoint x="901" y="321" as="sourcePoint" />
            <mxPoint x="900.5" y="395" as="targetPoint" />
          </mxGeometry>
        </mxCell>
        <mxCell id="evcSbRz_riRqxY8VbHda-44" value="" style="edgeStyle=none;rounded=0;hachureGap=4;orthogonalLoop=1;jettySize=auto;html=1;fontFamily=Architects Daughter;fontSource=https%3A%2F%2Ffonts.googleapis.com%2Fcss%3Ffamily%3DArchitects%2BDaughter;fontSize=16;endArrow=none;endFill=0;strokeWidth=3;strokeColor=#EA6B66;entryX=0.5;entryY=0;entryDx=0;entryDy=0;entryPerimeter=0;exitX=0.5;exitY=1;exitDx=0;exitDy=0;exitPerimeter=0;" edge="1" parent="1" source="evcSbRz_riRqxY8VbHda-9" target="evcSbRz_riRqxY8VbHda-14">
          <mxGeometry relative="1" as="geometry">
            <mxPoint x="795" y="311" as="sourcePoint" />
            <mxPoint x="879.5" y="386" as="targetPoint" />
          </mxGeometry>
        </mxCell>
        <mxCell id="evcSbRz_riRqxY8VbHda-45" value="" style="edgeStyle=none;rounded=0;hachureGap=4;orthogonalLoop=1;jettySize=auto;html=1;fontFamily=Architects Daughter;fontSource=https%3A%2F%2Ffonts.googleapis.com%2Fcss%3Ffamily%3DArchitects%2BDaughter;fontSize=16;endArrow=none;endFill=0;strokeWidth=3;strokeColor=#EA6B66;entryX=0.5;entryY=0;entryDx=0;entryDy=0;entryPerimeter=0;exitX=0.5;exitY=1;exitDx=0;exitDy=0;exitPerimeter=0;" edge="1" parent="1" source="evcSbRz_riRqxY8VbHda-8" target="evcSbRz_riRqxY8VbHda-14">
          <mxGeometry relative="1" as="geometry">
            <mxPoint x="935" y="321" as="sourcePoint" />
            <mxPoint x="1005.5" y="386" as="targetPoint" />
          </mxGeometry>
        </mxCell>
        <mxCell id="evcSbRz_riRqxY8VbHda-47" value="" style="edgeStyle=none;rounded=0;hachureGap=4;orthogonalLoop=1;jettySize=auto;html=1;fontFamily=Architects Daughter;fontSource=https%3A%2F%2Ffonts.googleapis.com%2Fcss%3Ffamily%3DArchitects%2BDaughter;fontSize=16;endArrow=none;endFill=0;strokeWidth=3;strokeColor=#EA6B66;entryX=0.5;entryY=0;entryDx=0;entryDy=0;entryPerimeter=0;" edge="1" parent="1" target="evcSbRz_riRqxY8VbHda-6">
          <mxGeometry relative="1" as="geometry">
            <mxPoint x="425" y="181" as="sourcePoint" />
            <mxPoint x="155.5" y="255" as="targetPoint" />
          </mxGeometry>
        </mxCell>
      </root>
    </mxGraphModel>
  </diagram>
</mxfile>
